<?xml version="1.0" encoding="utf-8"?>
<!-- Generator: Adobe Illustrator 19.0.0, SVG Export Plug-In . SVG Version: 6.00 Build 0)  -->
<svg version="1.1" id="Layer_1" xmlns="http://www.w3.org/2000/svg" xmlns:xlink="http://www.w3.org/1999/xlink" x="0px" y="0px"
	 viewBox="0 0 4000 4000" style="enable-background:new 0 0 4000 4000;" xml:space="preserve">
<style type="text/css">
	.st0{fill:#3B5A86;}
</style>
<g id="XMLID_5_">
	<path id="XMLID_6_" class="st0" d="M1850.6,695.8c-180.6,48.9-348.8,119.4-504.8,211.3c-156,92-292.3,197.1-408.9,315.4
		c-116.6,118.4-208.7,247-276.4,385.8C592.8,1747.2,559,1889.8,559,2036.2c0,86.4,16.9,161.6,50.8,225.5
		c33.7,63.9,77,95.6,129.7,95.6c48.8,0,90.2-9.2,124.1-27.7c33.7-18.4,68.5-39.8,104.4-63.9c35.7-24.1,76.1-45.3,121.2-63.9
		c45.2-18.4,105.3-27.7,180.6-27.7c78.9,0,153.2,17,222.7,50.8c69.6,33.9,131.6,80.9,186.1,141.1s96.7,131.6,126.8,214.5
		s45.2,171.1,45.2,265.1c0,101.7-20.8,195.8-62,282.2c-41.4,86.4-98.8,162.7-172.1,228.5s-158.9,116.6-256.6,152.3
		c-97.9,35.8-203.2,53.6-316,53.6c-146.7,0-283.1-31.9-409-95.9c-126.1-63.9-236.1-152.3-330.1-265.1
		c-94.1-112.8-168.4-244.4-222.9-394.9C27.3,2655.8,0,2496,0,2326.7c0-267,49.8-513.4,149.5-739s234-422.1,403.3-589.5
		s365.8-300.9,589.6-400.6s459.8-158.9,708.1-177.7v275.9H1850.6z M4000,695.8c-180.6,48.9-348.8,119.4-504.8,211.3
		c-156,92-292.3,197.1-408.9,315.4c-116.6,118.4-208.7,247-276.4,385.8c-67.8,138.9-101.5,281.5-101.5,427.9
		c0,86.4,16.9,161.6,50.8,225.5c33.7,63.9,77,95.6,129.7,95.6c48.8,0,90.2-9.2,124.1-27.7c33.7-18.4,68.5-39.8,104.4-63.9
		c35.7-24.1,76.1-45.3,121.2-63.9c45.2-18.4,105.3-27.7,180.6-27.7c78.9,0,153.2,17,222.7,50.8c69.6,33.9,131.6,80.9,186.1,141.1
		s96.7,131.6,126.8,214.5c30.1,82.8,45.2,171.1,45.2,265.1c0,101.7-20.8,195.8-62,282.2c-41.4,86.4-98.8,162.7-172.1,228.5
		s-158.9,116.6-256.6,152.3c-97.9,35.8-203.2,53.6-316,53.6c-146.7,0-283.1-31.9-409-95.9c-126.1-63.9-236.1-152.3-330.1-265.1
		c-94.1-112.8-168.4-244.4-222.9-394.9s-81.8-310.2-81.8-479.5c0-267,49.8-513.4,149.5-739s234-422.1,403.3-589.5
		s365.8-300.9,589.6-400.6S3751.7,438.8,4000,420V695.8z"/>
</g>
</svg>
